<?xml version="1.0" standalone="no"?>
<!DOCTYPE svg PUBLIC "-//W3C//DTD SVG 20010904//EN"
 "http://www.w3.org/TR/2001/REC-SVG-20010904/DTD/svg10.dtd">
<svg version="1.0" xmlns="http://www.w3.org/2000/svg"
 width="512.000000pt" height="512.000000pt" viewBox="0 0 512.000000 512.000000"
 preserveAspectRatio="xMidYMid meet">
<metadata>
Created by potrace 1.14, written by Peter Selinger 2001-2017
</metadata>
<g transform="translate(0.000000,512.000000) scale(0.100000,-0.100000)"
fill="#000000" stroke="none">
<path d="M3591 5074 c-19 -24 -20 -40 -20 -316 -1 -306 4 -340 46 -350 15 -4
579 -3 608 1 6 0 18 13 26 29 13 23 15 75 14 326 l-1 299 -23 18 c-22 18 -45
19 -326 19 l-304 0 -20 -26z"/>
<path d="M2864 4781 c-10 -1 -27 -10 -36 -19 -16 -14 -18 -41 -18 -288 0 -268
0 -274 22 -294 21 -19 34 -20 290 -20 255 0 269 1 288 20 19 19 20 33 20 295
l0 275 -27 17 c-23 15 -56 17 -273 18 -135 0 -255 -2 -266 -4z"/>
<path d="M2237 4755 c-1 -1 -36 -5 -77 -9 -131 -10 -254 -35 -397 -81 -69 -22
-85 -31 -98 -56 -9 -16 -13 -34 -10 -38 3 -5 -40 -32 -95 -60 -88 -45 -104
-50 -123 -39 -47 26 -66 18 -189 -70 -78 -55 -84 -65 -79 -121 2 -18 -17 -43
-76 -102 -63 -64 -82 -77 -100 -73 -44 12 -68 -5 -129 -88 -173 -235 -292
-515 -329 -775 -3 -21 -8 -44 -10 -51 -3 -8 -8 -63 -11 -125 -7 -109 -8 -112
-54 -191 -37 -64 -188 -318 -319 -538 -133 -223 -140 -242 -97 -276 14 -10 58
-29 98 -41 40 -12 138 -44 218 -69 l144 -47 1 -120 c2 -143 14 -203 65 -310
63 -131 162 -231 294 -295 102 -50 173 -63 349 -64 l157 0 1 -71 c0 -38 0
-274 0 -524 l1 -454 23 -23 24 -24 769 0 c739 0 771 1 793 19 l23 19 1 597 0
598 79 34 c291 128 574 371 755 648 131 200 233 451 268 660 3 17 8 49 12 71
9 49 -7 99 -35 106 -11 2 -153 4 -316 4 -164 -1 -299 1 -299 4 -1 3 -2 103 -4
223 -2 279 12 259 -189 261 l-145 1 0 319 c0 306 -1 321 -20 340 -19 18 -35
20 -253 21 -128 1 -236 3 -240 4 -4 0 -7 167 -7 371 -1 381 -3 403 -41 415
-37 11 -322 28 -333 20z"/>
<path d="M4431 4668 c-11 -4 -24 -16 -30 -27 -11 -20 -16 -587 -5 -626 11 -41
33 -44 276 -45 398 -2 386 -2 408 20 19 19 20 33 20 329 0 288 -1 310 -19 332
l-19 24 -306 0 c-168 1 -314 -3 -325 -7z"/>
<path d="M3312 3971 c-15 -25 -17 -57 -16 -266 l0 -238 25 -21 c25 -21 33 -22
266 -21 222 0 243 2 262 19 20 18 21 29 21 268 0 235 -1 249 -20 268 -19 19
-33 20 -270 20 l-250 0 -18 -29z"/>
<path d="M4023 3728 c-12 -6 -24 -20 -27 -31 -3 -11 -5 -174 -6 -362 0 -324 1
-343 19 -366 l19 -24 362 0 c430 0 395 -11 398 134 3 97 -10 134 -49 146 -17
6 -19 17 -19 115 0 98 2 109 19 115 37 11 50 47 50 143 0 76 -3 94 -20 116
l-20 26 -352 -1 c-223 0 -360 -4 -374 -11z"/>
</g>
</svg>
